<svg xmlns="http://www.w3.org/2000/svg" width="2478" height="800" viewBox="0 0 2478 800" version="1.1"><path d="M 166.183 159.795 C 161.557 170.551, 159.804 179.115, 159.275 193.560 C 158.419 216.915, 161.821 232.735, 174.011 262.079 C 177.798 271.197, 181.807 282.222, 182.918 286.579 C 187.219 303.444, 188.018 320.811, 185.488 342.442 C 183.409 360.212, 181.401 369.664, 161.447 455.627 C 151.851 496.968, 144 531.514, 144 532.396 C 144 533.842, 148.043 534, 185.021 534 L 226.043 534 227.018 531.750 C 227.554 530.513, 232.968 507.900, 239.048 481.500 C 245.128 455.100, 250.335 432.712, 250.619 431.750 C 251.100 430.119, 254.011 430, 293.408 430 L 335.680 430 323.871 480.750 C 317.375 508.663, 312.047 532.063, 312.031 532.750 C 312.007 533.730, 320.937 534, 353.433 534 C 392.022 534, 394.902 533.880, 395.398 532.250 C 396.232 529.513, 412.309 460.201, 418.424 432.977 C 427.175 394.021, 428.377 385.609, 428.421 363 C 428.463 340.862, 427.249 332.698, 421.391 315.759 C 411.866 288.212, 393.798 264.897, 369.500 248.796 C 359.415 242.113, 352.367 238.280, 351.619 239.071 C 351.396 239.307, 351.830 242.472, 352.584 246.104 C 356.124 263.165, 357.198 273.640, 357.699 296 C 358.270 321.444, 357.062 336.185, 352.700 357 L 350.500 367.500 307.946 367.761 L 265.392 368.021 266.754 359.261 C 270.284 336.547, 265.972 309.390, 255.518 288.500 C 248.084 273.644, 241.149 264.065, 209.551 225 C 189.099 199.716, 176.705 179.113, 171.800 162.250 C 170.641 158.262, 169.367 155, 168.969 155 C 168.572 155, 167.318 157.158, 166.183 159.795 M 1077.114 163.750 C 1072.408 183.810, 1072.054 203.519, 1076.046 223.188 C 1081.103 248.104, 1092.388 270.077, 1109.031 287.412 C 1122.051 300.975, 1135.867 309.489, 1156.317 316.553 C 1162.649 318.740, 1166.704 320.656, 1166.466 321.348 C 1165.562 323.976, 1118 531.282, 1118 532.593 C 1118 533.813, 1124.036 533.984, 1159.250 533.761 L 1200.500 533.500 1224.058 431.500 L 1247.616 329.500 1290.058 329.236 L 1332.500 328.971 1339.257 299.236 C 1342.973 282.881, 1346.011 268.771, 1346.007 267.881 C 1346.001 266.421, 1341.634 266.206, 1301.750 265.706 C 1207.270 264.520, 1170.802 257.312, 1136.156 232.975 C 1113.356 216.958, 1092.898 189.521, 1082.834 161.458 C 1081.560 157.906, 1080.214 155, 1079.842 155 C 1079.471 155, 1078.243 158.938, 1077.114 163.750 M 119.050 255.930 C 115.331 261.152, 110.314 273.116, 107.907 282.500 C 106.015 289.875, 105.589 294.209, 105.549 306.500 C 105.496 322.633, 106.359 327.745, 111.056 339.135 C 114.797 348.207, 120.101 356.233, 127.379 363.835 C 133.352 370.074, 144.756 379, 146.754 379 C 148.044 379, 151.344 371.279, 153.593 363 C 156.008 354.105, 156.020 337.548, 153.617 329.500 C 152.631 326.200, 147.623 315.400, 142.487 305.500 C 131.994 285.273, 127.925 275.602, 124.457 262.642 C 123.147 257.747, 121.882 253.549, 121.647 253.313 C 121.411 253.078, 120.242 254.255, 119.050 255.930 M 593.500 263.045 C 521.357 269.363, 473.614 318.022, 464.053 394.974 C 462.482 407.615, 462.739 433.234, 464.541 443.619 C 468.755 467.911, 478.393 487.223, 494.378 503.402 C 516.352 525.643, 547.593 537.295, 585 537.201 C 618.424 537.118, 644.203 529.932, 668.282 513.988 C 699.892 493.057, 720.271 459.122, 728.098 414.381 C 731.085 397.308, 731.408 365.080, 728.723 352.100 C 721.156 315.525, 696.259 285.758, 661.827 272.121 C 642.309 264.390, 616.812 261.004, 593.500 263.045 M 2229.500 263.075 C 2196.782 265.962, 2173.282 275.702, 2154.943 293.976 C 2146.985 301.905, 2144.698 304.923, 2141.284 312 C 2135.839 323.284, 2133.993 331.067, 2133.341 345.500 C 2132.690 359.908, 2134.289 368.865, 2139.456 379.746 C 2147.787 397.288, 2161.828 410.025, 2184.360 420.481 C 2189.387 422.813, 2204.525 428.395, 2218 432.884 C 2245.495 442.043, 2252.491 445.215, 2255.750 449.995 C 2261.288 458.119, 2255.591 470.170, 2244.336 474.142 C 2239.467 475.860, 2220.673 475.803, 2212.500 474.045 C 2197.590 470.839, 2179.640 462.983, 2166.468 453.901 C 2160.115 449.520, 2148.223 438.309, 2141.645 430.500 C 2139.127 427.510, 2139.112 427.506, 2137.221 429.500 C 2136.178 430.600, 2126.211 441.529, 2115.072 453.787 L 2094.819 476.073 2098.652 480.787 C 2119.677 506.641, 2154.063 526.717, 2189.643 533.912 C 2204.943 537.006, 2215.159 538, 2231.651 538 C 2254.611 538, 2271.529 534.967, 2289.544 527.623 C 2312.845 518.123, 2331.133 500.613, 2339.282 480 C 2347.781 458.504, 2346.508 429.668, 2336.292 412.236 C 2329.662 400.923, 2315.566 389.405, 2298.734 381.547 C 2293.655 379.177, 2278.025 373.319, 2264 368.531 C 2226.828 355.839, 2220 351.744, 2220 342.146 C 2220 330.347, 2229.581 325.354, 2250.445 326.280 C 2275.923 327.412, 2297.549 337.265, 2315.094 355.736 L 2322.238 363.257 2345.869 339.564 L 2369.500 315.872 2359.408 306.186 C 2339.287 286.875, 2316.577 273.804, 2292.409 267.627 C 2276.534 263.569, 2247.611 261.476, 2229.500 263.075 M 764.081 269.750 C 763.533 271.813, 760.350 285.200, 757.008 299.500 C 753.666 313.800, 750.692 326.288, 750.398 327.250 C 749.896 328.898, 752.356 329, 792.433 329 C 815.845 329, 835 329.120, 835 329.266 C 835 329.413, 824.461 375.189, 811.581 430.992 C 798.700 486.795, 788.376 532.800, 788.640 533.226 C 788.903 533.652, 807.511 534, 829.992 534 C 868.061 534, 870.900 533.880, 871.366 532.250 C 872.145 529.530, 918 330.254, 918 329.589 C 918 329.265, 937.116 329, 960.481 329 L 1002.962 329 1003.487 326.750 C 1011.267 293.408, 1016.852 267.569, 1016.427 266.881 C 1016.117 266.381, 961.730 266, 890.480 266 L 765.077 266 764.081 269.750 M 1413.315 268.643 C 1407.882 276.933, 1263.262 532.615, 1263.650 533.242 C 1263.907 533.659, 1282.998 534, 1306.074 534 L 1348.029 534 1349.946 530.848 C 1351.001 529.114, 1357.856 516.072, 1365.182 501.865 L 1378.500 476.034 1419.250 476.017 L 1460 476 1459.994 478.750 C 1459.982 484.699, 1462.134 527.691, 1462.598 530.750 L 1463.091 534 1502.045 534 C 1540.581 534, 1541 533.978, 1541 531.961 C 1541 528.625, 1514.965 268.611, 1514.495 267.250 C 1514.157 266.273, 1503.264 266, 1464.554 266 L 1415.046 266 1413.315 268.643 M 1624.474 268.250 C 1617.172 297.399, 1563.375 532.725, 1563.891 533.261 C 1564.293 533.680, 1583.036 533.905, 1605.541 533.761 L 1646.460 533.500 1652.705 506.500 C 1656.140 491.650, 1659.675 476.268, 1660.560 472.319 L 1662.170 465.137 1680.129 448.819 C 1690.006 439.843, 1698.410 432.386, 1698.804 432.246 C 1699.199 432.107, 1708.072 454.832, 1718.523 482.746 L 1737.524 533.500 1778.951 533.761 C 1801.736 533.905, 1820.698 533.680, 1821.089 533.261 C 1821.481 532.843, 1809.004 498.750, 1793.364 457.500 C 1777.724 416.250, 1764.695 381.587, 1764.410 380.470 C 1763.992 378.825, 1774.901 367.961, 1821.947 323.171 C 1853.876 292.773, 1880 267.474, 1880 266.951 C 1880 266.364, 1862.783 266, 1835.009 266 L 1790.019 266 1738.342 314.499 C 1709.919 341.173, 1686.507 362.841, 1686.315 362.648 C 1686.122 362.455, 1690.923 341.089, 1696.982 315.166 C 1703.042 289.243, 1708 267.576, 1708 267.017 C 1708 266.344, 1693.964 266, 1666.519 266 L 1625.038 266 1624.474 268.250 M 1905.036 279.250 C 1903.323 286.538, 1889.410 346.500, 1874.120 412.500 L 1846.318 532.500 1955.821 532.754 C 2016.048 532.894, 2065.519 532.814, 2065.757 532.576 C 2066.305 532.028, 2080 474.083, 2080 472.313 C 2080 471.242, 2067.487 471, 2012.146 471 L 1944.291 471 1948.672 451.750 C 1951.081 441.163, 1953.296 431.712, 1953.593 430.750 C 1954.100 429.112, 1957.503 429, 2006.529 429 L 2058.923 429 2059.910 425.250 C 2061 421.109, 2072 372.154, 2072 371.444 C 2072 371.200, 2048.366 371, 2019.481 371 L 1966.962 371 1967.500 368.750 C 1967.796 367.512, 1969.973 358.175, 1972.338 348 L 1976.638 329.500 2043.524 329 L 2110.410 328.500 2117.179 299 C 2120.902 282.775, 2123.960 268.712, 2123.974 267.750 C 2123.999 266.094, 2118.204 266, 2016.076 266 L 1908.151 266 1905.036 279.250 M 595.383 327.949 C 581.879 331.173, 567.884 345.149, 559.082 364.200 C 550.895 381.922, 546.991 399.260, 546.292 421 C 545.905 433.064, 546.148 438.001, 547.388 443.271 C 550.467 456.358, 556.836 464.804, 567.253 469.615 C 573.086 472.309, 574.329 472.500, 586.021 472.500 C 598.110 472.500, 598.768 472.389, 605.101 469.271 C 626.978 458.501, 643.280 425.900, 647.099 385.280 C 650.066 353.720, 641.374 334.346, 621.614 328.478 C 616.399 326.929, 600.958 326.618, 595.383 327.949 M 1443.608 347.816 C 1438.717 358.642, 1428.592 379.394, 1421.108 393.932 C 1413.623 408.469, 1407.350 420.732, 1407.167 421.182 C 1406.983 421.632, 1418.121 422, 1431.917 422 C 1455.149 422, 1456.998 421.871, 1456.973 420.250 C 1456.958 419.288, 1456.295 406.575, 1455.500 392 C 1454.705 377.425, 1454.016 358.750, 1453.969 350.500 C 1453.923 342.250, 1453.573 333.842, 1453.192 331.816 C 1452.524 328.259, 1452.194 328.808, 1443.608 347.816 M 641.343 589.486 C 632.419 591.538, 626.514 594.630, 620.005 600.656 C 613.769 606.429, 608.298 615.719, 605.667 625 C 601.694 639.017, 589.001 697.467, 589.006 701.724 C 589.023 716.413, 598.683 725.744, 616.165 727.959 C 624.511 729.016, 638.125 727.926, 646.093 725.563 C 659.639 721.546, 668.655 712.733, 673.623 698.653 C 675.013 694.713, 681 669.777, 681 667.928 C 681 667.393, 673.602 667, 663.519 667 C 646.211 667, 646.033 667.022, 645.518 669.250 C 638.820 698.226, 637.819 700.829, 632.910 702.053 C 629.699 702.854, 625.217 701.260, 624.522 699.070 C 623.877 697.038, 624.444 694.240, 633.906 652.782 C 637.761 635.886, 641.615 620.712, 642.468 619.061 C 644.298 615.524, 646.786 614, 650.734 614 C 656.575 614, 657.289 617.943, 653.993 632 C 652.897 636.675, 651.767 641.513, 651.481 642.750 L 650.962 645 668.462 645 C 685.792 645, 685.967 644.978, 686.473 642.750 C 686.754 641.513, 688.113 635.623, 689.492 629.661 C 692.550 616.446, 692.727 608.346, 690.072 603.142 C 687.256 597.622, 680.917 592.359, 674.810 590.472 C 667.497 588.213, 649.222 587.674, 641.343 589.486 M 1239.423 589.396 C 1222.320 592.774, 1209.522 604.886, 1203.916 623 C 1199.389 637.627, 1186.727 695.598, 1186.658 702.009 C 1186.505 716.310, 1195.880 725.486, 1213.089 727.880 C 1221 728.980, 1234.134 728.118, 1242.086 725.977 C 1254.378 722.667, 1263.852 714.833, 1269.052 703.680 C 1272.739 695.771, 1279.271 668.041, 1277.597 667.399 C 1276.952 667.151, 1269.039 667.073, 1260.014 667.224 L 1243.606 667.500 1240.026 682.254 C 1237.151 694.105, 1235.922 697.532, 1233.784 699.671 C 1229.141 704.314, 1222 702.712, 1222 697.026 C 1222 693.916, 1237.499 624.890, 1239.104 620.855 C 1240.954 616.203, 1243.761 614, 1247.839 614 C 1254.821 614, 1255.240 616.061, 1251.500 632 C 1250.145 637.775, 1249.028 643.063, 1249.018 643.750 C 1249.004 644.702, 1253.045 645, 1265.941 645 C 1275.259 645, 1283.117 644.619, 1283.405 644.153 C 1284.405 642.536, 1290 615.997, 1290 612.873 C 1290 604.818, 1285.003 596.572, 1277.935 592.967 C 1268.790 588.302, 1252.576 586.798, 1239.423 589.396 M 2151 589.458 C 2134.487 593.682, 2123.477 603.090, 2118.039 617.624 C 2116.892 620.690, 2112.523 638.116, 2108.330 656.349 C 2098.140 700.659, 2097.662 710.282, 2105.197 719.423 C 2109.068 724.119, 2114.177 726.670, 2122.312 727.970 C 2134.112 729.855, 2147.591 726.660, 2156.027 719.978 C 2158.096 718.340, 2160.016 717, 2160.294 717 C 2160.573 717, 2161.340 719.250, 2162 722 L 2163.199 727 2170.491 727 C 2177.592 727, 2177.801 726.929, 2178.466 724.281 C 2178.841 722.785, 2182.681 706.009, 2187 687 C 2191.319 667.991, 2195.159 651.215, 2195.534 649.719 L 2196.217 647 2174.776 647 L 2153.336 647 2151.110 656.750 C 2149.886 662.112, 2148.637 667.513, 2148.334 668.750 C 2147.822 670.841, 2148.114 671, 2152.459 671 C 2156.432 671, 2157.061 671.263, 2156.646 672.750 C 2156.377 673.712, 2155.189 678.744, 2154.006 683.931 C 2151.084 696.746, 2148.993 700.632, 2144.325 701.921 C 2138.718 703.469, 2135.579 701.599, 2135.216 696.493 C 2134.870 691.640, 2150.385 622.850, 2152.715 618.906 C 2154.662 615.609, 2157.895 614, 2162.568 614 C 2167.838 614, 2168.782 616.946, 2166.667 626.787 C 2165.750 631.054, 2165 635.098, 2165 635.773 C 2165 636.694, 2169.208 637, 2181.870 637 L 2198.740 637 2199.979 630.750 C 2201.791 621.615, 2201.591 608.348, 2199.568 603.500 C 2197.170 597.753, 2192.428 593.315, 2186.051 590.847 C 2178.911 588.084, 2159.396 587.311, 2151 589.458 M 206.562 590.171 C 205.675 592.875, 176 724.594, 176 725.828 C 176 726.847, 182.175 727.045, 206.250 726.797 C 235.017 726.501, 236.777 726.374, 242.147 724.210 C 252.611 719.992, 260.191 711.569, 265.734 698 C 270.264 686.912, 272.331 676.282, 271.787 666.876 C 271.378 659.820, 271.009 658.613, 268.414 655.854 C 266.811 654.150, 264.185 652.189, 262.577 651.496 L 259.654 650.235 262.577 649.577 C 271.869 647.487, 279.667 636.565, 282.507 621.662 C 285.082 608.144, 284.121 601.311, 278.929 596.235 C 272.917 590.357, 268.644 589.656, 236.249 589.228 C 212.544 588.915, 206.915 589.094, 206.562 590.171 M 327.111 656.754 C 318.648 694.014, 311.512 725.063, 311.255 725.750 C 310.891 726.721, 314.791 727, 328.729 727 L 346.671 727 351.944 703.750 C 354.844 690.962, 357.999 677.125, 358.954 673 L 360.692 665.500 364.682 665.200 C 369.390 664.847, 371.520 666.758, 371.194 671.042 C 371.019 673.338, 362.174 713.491, 359.469 724.268 L 358.783 727 376.219 727 L 393.655 727 399.858 699.250 C 403.270 683.987, 406.048 669.790, 406.031 667.700 C 405.989 662.594, 403.516 658.120, 399.891 656.596 L 396.912 655.344 400.929 653.532 C 412.583 648.277, 420.139 631.956, 420.390 611.500 C 420.515 601.275, 418.890 597.190, 413.159 593.328 C 407.703 589.652, 401.379 589, 371.201 589.004 L 342.500 589.008 327.111 656.754 M 489.102 591.250 C 487.509 595.475, 442 726.293, 442 726.647 C 442 726.841, 449.613 727, 458.917 727 L 475.835 727 479.500 716 L 483.165 705 493.210 705 L 503.256 705 502.657 708.750 C 502.328 710.813, 501.756 715.763, 501.386 719.750 L 500.713 727 517.356 727 C 529.187 727, 534 726.669, 534 725.855 C 534 723.944, 547.955 595.739, 548.543 592.250 L 549.091 589 519.521 589 L 489.950 589 489.102 591.250 M 749.505 590.250 C 749.267 590.938, 742.160 621.998, 733.710 659.272 L 718.347 727.045 735.888 726.772 L 753.429 726.500 760.420 695.789 C 764.265 678.897, 767.513 665.180, 767.639 665.306 C 767.913 665.580, 771 719.353, 771 723.854 L 771 727 789.512 727 L 808.024 727 807.490 723.250 C 806.626 717.170, 801.998 659.913, 802.017 655.524 C 802.031 652.262, 805.149 645.631, 818.487 620.500 L 834.941 589.500 818.257 589.225 C 809.081 589.074, 801.088 589.136, 800.496 589.363 C 799.903 589.591, 793.587 601.040, 786.460 614.806 C 779.334 628.573, 773.396 639.729, 773.265 639.598 C 773.134 639.467, 775.490 628.592, 778.499 615.430 C 781.509 602.269, 783.978 590.938, 783.986 590.250 C 783.997 589.298, 779.935 589, 766.969 589 C 754.241 589, 749.828 589.316, 749.505 590.250 M 884 589.431 C 884 589.668, 877.025 620.481, 868.500 657.904 C 859.975 695.327, 853 726.183, 853 726.473 C 853 726.763, 869.124 727, 888.832 727 L 924.664 727 927.676 713.500 L 930.688 700 912.844 700 C 899.206 700, 895.013 699.705, 895.056 698.750 C 895.087 698.063, 896.570 691.200, 898.352 683.500 L 901.593 669.500 917.765 669.225 L 933.936 668.951 934.925 665.225 C 936.038 661.029, 940 643.297, 940 642.511 C 940 642.230, 932.800 642, 924 642 C 915.200 642, 908.018 641.663, 908.040 641.250 C 908.062 640.837, 909.338 635.100, 910.875 628.500 L 913.671 616.500 930.649 616.227 L 947.627 615.954 950.332 603.727 C 951.819 597.002, 953.028 590.938, 953.018 590.250 C 953.004 589.275, 945.424 589, 918.500 589 C 899.525 589, 884 589.194, 884 589.431 M 1000.530 590.250 C 1000.029 591.786, 995 614.718, 995 615.463 C 995 615.759, 999.500 616, 1005 616 C 1010.500 616, 1015 616.140, 1015 616.311 C 1015 616.482, 1009.375 641.290, 1002.500 671.440 C 995.625 701.590, 990 726.426, 990 726.629 C 990 726.833, 997.845 727, 1007.433 727 C 1023.173 727, 1024.915 726.830, 1025.378 725.250 C 1026.122 722.713, 1050 617.370, 1050 616.626 C 1050 616.282, 1054.653 616, 1060.341 616 L 1070.682 616 1071.987 610.250 C 1072.704 607.087, 1074.077 601.013, 1075.038 596.750 L 1076.783 589 1038.860 589 C 1009.406 589, 1000.846 589.279, 1000.530 590.250 M 1347 589.656 C 1347 590.254, 1317.802 718.956, 1316.390 724.581 L 1315.783 727 1333.392 727 C 1343.076 727, 1351 726.822, 1351 726.605 C 1351 726.280, 1362.708 674.819, 1364.504 667.250 C 1364.999 665.165, 1365.586 665, 1372.519 665 C 1377.858 665, 1379.989 665.358, 1379.960 666.250 C 1379.938 666.938, 1376.885 680.775, 1373.175 697 L 1366.431 726.500 1383.391 726.774 C 1392.719 726.925, 1400.659 726.700, 1401.036 726.274 C 1401.751 725.465, 1432.039 592.450, 1432.014 590.226 C 1432.003 589.234, 1428.196 589.013, 1414.776 589.226 L 1397.551 589.500 1392.065 613.750 L 1386.579 638 1378.722 638 C 1371.698 638, 1370.923 637.815, 1371.411 636.250 C 1372.082 634.102, 1382 590.386, 1382 589.579 C 1382 589.260, 1374.125 589, 1364.500 589 C 1354.875 589, 1347 589.295, 1347 589.656 M 1498.032 592.250 C 1496.214 597.328, 1459.301 703.165, 1454.950 715.773 L 1451.060 727.047 1468.214 726.773 L 1485.368 726.500 1488.900 715.750 L 1492.432 705 1502.354 705 L 1512.275 705 1511.638 710.500 C 1511.287 713.525, 1510.713 718.475, 1510.362 721.500 L 1509.725 727 1526.301 727 L 1542.877 727 1543.463 722.750 C 1543.966 719.107, 1558 590.314, 1558 589.348 C 1558 589.157, 1544.769 589, 1528.598 589 L 1499.196 589 1498.032 592.250 M 1624 589.431 C 1624 589.668, 1617.025 620.481, 1608.500 657.904 C 1599.975 695.327, 1593 726.189, 1593 726.486 C 1593 726.783, 1608.852 726.907, 1628.227 726.763 L 1663.453 726.500 1665.700 716.500 C 1669.073 701.485, 1670.723 703, 1651 703 C 1637.440 703, 1634 702.728, 1634 701.657 C 1634 700.919, 1639.625 675.606, 1646.499 645.407 C 1653.374 615.208, 1658.999 590.163, 1658.999 589.750 C 1659 589.337, 1651.125 589, 1641.500 589 C 1631.875 589, 1624 589.194, 1624 589.431 M 1743.493 590.250 C 1743.249 590.938, 1736.270 621.425, 1727.984 658 C 1719.699 694.575, 1712.727 725.063, 1712.491 725.750 C 1712.154 726.735, 1719.570 727, 1747.408 727 L 1782.753 727 1784.964 717.250 C 1786.179 711.888, 1787.409 706.487, 1787.695 705.250 L 1788.217 703 1770.500 703 L 1752.783 703 1753.344 700.750 C 1753.870 698.639, 1775.784 602.469, 1777.840 593.250 L 1778.787 589 1761.362 589 C 1748.326 589, 1743.825 589.315, 1743.493 590.250 M 1862.660 591.250 C 1861.384 596.409, 1832 726.017, 1832 726.487 C 1832 726.769, 1848.107 727, 1867.794 727 L 1903.587 727 1906.639 713.500 L 1909.692 700 1891.846 700 C 1878.206 700, 1874.013 699.705, 1874.056 698.750 C 1874.087 698.063, 1875.570 691.200, 1877.352 683.500 L 1880.593 669.500 1896.765 669.225 L 1912.936 668.951 1913.925 665.225 C 1915.038 661.029, 1919 643.297, 1919 642.511 C 1919 642.230, 1911.800 642, 1903 642 C 1894.200 642, 1887.018 641.663, 1887.040 641.250 C 1887.062 640.837, 1888.338 635.100, 1889.875 628.500 L 1892.671 616.500 1909.649 616.227 L 1926.627 615.954 1929.332 603.727 C 1930.819 597.002, 1932.028 590.938, 1932.018 590.250 C 1932.004 589.275, 1924.445 589, 1897.608 589 L 1863.217 589 1862.660 591.250 M 1970.087 656.728 C 1961.624 694.003, 1954.494 725.063, 1954.243 725.750 C 1953.889 726.720, 1957.681 727, 1971.147 727 L 1988.507 727 1995.504 696.097 C 1999.352 679.101, 2002.838 665.403, 2003.250 665.656 C 2003.662 665.910, 2004 674.346, 2004 684.402 C 2004 694.458, 2004.295 708.167, 2004.655 714.866 L 2005.310 727.046 2022.354 726.773 L 2039.398 726.500 2054.659 659.500 C 2063.052 622.650, 2069.937 591.702, 2069.960 590.726 C 2069.997 589.085, 2068.738 588.972, 2053.253 589.226 L 2036.506 589.500 2029.503 620.423 L 2022.500 651.346 2022 620.423 L 2021.500 589.500 2003.487 589.228 L 1985.475 588.957 1970.087 656.728 M 2261.506 591.250 C 2258.644 603.357, 2231.003 725.684, 2231.002 726.250 C 2231.001 726.663, 2247.089 727, 2266.754 727 L 2302.508 727 2305.260 714.750 C 2306.773 708.013, 2308.009 701.938, 2308.006 701.250 C 2308.001 700.298, 2303.830 700, 2290.500 700 C 2277.145 700, 2273.010 699.704, 2273.040 698.750 C 2273.063 698.063, 2274.529 691.200, 2276.299 683.500 L 2279.517 669.500 2295.699 669.226 C 2310.013 668.983, 2311.941 668.752, 2312.399 667.226 C 2312.953 665.381, 2318 642.979, 2318 642.366 C 2318 642.165, 2310.780 642, 2301.955 642 L 2285.909 642 2286.522 638.750 C 2286.859 636.962, 2288.128 631.225, 2289.342 626 L 2291.549 616.500 2308.533 616.227 L 2325.518 615.955 2328.265 603.727 C 2329.776 597.002, 2331.009 590.938, 2331.006 590.250 C 2331.001 589.274, 2323.434 589, 2296.519 589 L 2262.038 589 2261.506 591.250 M 233.995 620.750 C 232.802 626.112, 231.233 632.862, 230.508 635.750 L 229.190 641 233.661 641 C 241.537 641, 243.644 638.606, 246.499 626.417 C 249.514 613.542, 248.506 611, 240.391 611 L 236.164 611 233.995 620.750 M 504.010 641.156 C 498.985 656.745, 494.161 671.750, 493.291 674.500 C 492.421 677.250, 491.501 680.063, 491.247 680.750 C 490.905 681.679, 492.681 682, 498.159 682 L 505.533 682 509.653 647.750 C 511.919 628.913, 513.632 613.345, 513.459 613.156 C 513.287 612.967, 509.035 625.567, 504.010 641.156 M 1520.591 618.176 C 1519.714 621.104, 1514.770 636.550, 1509.604 652.500 L 1500.211 681.500 1507.226 681.796 C 1511.084 681.959, 1514.372 681.959, 1514.532 681.796 C 1515.066 681.252, 1523.020 613.686, 1522.599 613.266 C 1522.371 613.038, 1521.468 615.248, 1520.591 618.176 M 369.683 626.750 C 368.204 633.212, 366.996 638.837, 366.997 639.250 C 366.999 639.663, 369.184 640, 371.854 640 C 375.583 640, 377.304 639.447, 379.281 637.615 C 382.168 634.940, 385 626.610, 385 620.794 C 385 617.588, 384.574 616.789, 382.435 615.975 C 381.024 615.439, 378.183 615, 376.121 615 L 372.372 615 369.683 626.750 M 220.156 681.750 C 217.848 692.063, 215.968 700.837, 215.979 701.250 C 216.021 702.753, 225.559 701.997, 228.027 700.296 C 232.067 697.512, 232.784 696.007, 235.452 684.731 C 239.679 666.865, 238.563 663, 229.177 663 L 224.354 663 220.156 681.750" stroke="none" fill="#fffcfc" fill-rule="evenodd"/><path d="" stroke="none" fill="#fcfcfc" fill-rule="evenodd"/></svg>