<svg xmlns="http://www.w3.org/2000/svg" width="2478" height="536" viewBox="0 0 2478 536" version="1.1"><path d="M 166.183 27.795 C 161.557 38.551, 159.804 47.115, 159.275 61.560 C 158.419 84.915, 161.821 100.735, 174.011 130.079 C 177.798 139.197, 181.807 150.222, 182.918 154.579 C 187.219 171.444, 188.018 188.811, 185.488 210.442 C 183.409 228.212, 181.401 237.664, 161.447 323.627 C 151.851 364.968, 144 399.514, 144 400.396 C 144 401.842, 148.043 402, 185.021 402 L 226.043 402 227.018 399.750 C 227.554 398.512, 232.968 375.900, 239.048 349.500 C 245.128 323.100, 250.335 300.712, 250.619 299.750 C 251.100 298.119, 254.011 298, 293.408 298 L 335.680 298 323.871 348.750 C 317.375 376.663, 312.047 400.063, 312.031 400.750 C 312.007 401.730, 320.937 402, 353.433 402 C 392.022 402, 394.902 401.880, 395.398 400.250 C 396.232 397.513, 412.309 328.201, 418.424 300.977 C 427.175 262.021, 428.377 253.609, 428.421 231 C 428.463 208.862, 427.249 200.698, 421.391 183.759 C 411.866 156.212, 393.798 132.897, 369.500 116.796 C 359.415 110.113, 352.367 106.280, 351.619 107.071 C 351.396 107.307, 351.830 110.472, 352.584 114.104 C 356.124 131.165, 357.198 141.640, 357.699 164 C 358.270 189.444, 357.062 204.185, 352.700 225 L 350.500 235.500 307.946 235.761 L 265.392 236.021 266.754 227.261 C 270.284 204.547, 265.972 177.390, 255.518 156.500 C 248.084 141.644, 241.149 132.065, 209.551 93 C 189.099 67.716, 176.705 47.113, 171.800 30.250 C 170.641 26.262, 169.367 23, 168.969 23 C 168.572 23, 167.318 25.158, 166.183 27.795 M 1077.114 31.750 C 1072.408 51.810, 1072.054 71.519, 1076.046 91.188 C 1081.103 116.104, 1092.388 138.077, 1109.031 155.412 C 1122.051 168.975, 1135.867 177.489, 1156.317 184.553 C 1162.649 186.740, 1166.704 188.656, 1166.466 189.348 C 1165.562 191.976, 1118 399.282, 1118 400.593 C 1118 401.813, 1124.036 401.984, 1159.250 401.761 L 1200.500 401.500 1224.058 299.500 L 1247.616 197.500 1290.058 197.236 L 1332.500 196.971 1339.257 167.236 C 1342.973 150.881, 1346.011 136.771, 1346.007 135.881 C 1346.001 134.421, 1341.634 134.206, 1301.750 133.706 C 1207.270 132.520, 1170.802 125.312, 1136.156 100.975 C 1113.356 84.958, 1092.898 57.521, 1082.834 29.458 C 1081.560 25.906, 1080.214 23, 1079.842 23 C 1079.471 23, 1078.243 26.938, 1077.114 31.750 M 119.050 123.930 C 115.331 129.152, 110.314 141.116, 107.907 150.500 C 106.015 157.875, 105.589 162.209, 105.549 174.500 C 105.496 190.633, 106.359 195.745, 111.056 207.135 C 114.797 216.207, 120.101 224.233, 127.379 231.835 C 133.352 238.074, 144.756 247, 146.754 247 C 148.044 247, 151.344 239.279, 153.593 231 C 156.008 222.105, 156.020 205.548, 153.617 197.500 C 152.631 194.200, 147.623 183.400, 142.487 173.500 C 131.994 153.273, 127.925 143.602, 124.457 130.642 C 123.147 125.747, 121.882 121.549, 121.647 121.313 C 121.411 121.078, 120.242 122.255, 119.050 123.930 M 593.500 131.045 C 521.357 137.363, 473.614 186.022, 464.053 262.974 C 462.482 275.615, 462.739 301.234, 464.541 311.619 C 468.755 335.911, 478.393 355.223, 494.378 371.402 C 516.352 393.643, 547.593 405.295, 585 405.201 C 618.424 405.118, 644.203 397.932, 668.282 381.988 C 699.892 361.057, 720.271 327.122, 728.098 282.381 C 731.085 265.308, 731.408 233.080, 728.723 220.100 C 721.156 183.525, 696.259 153.758, 661.827 140.121 C 642.309 132.390, 616.812 129.004, 593.500 131.045 M 2229.500 131.075 C 2196.782 133.962, 2173.282 143.702, 2154.943 161.976 C 2146.985 169.905, 2144.698 172.923, 2141.284 180 C 2135.839 191.284, 2133.993 199.067, 2133.341 213.500 C 2132.690 227.908, 2134.289 236.865, 2139.456 247.746 C 2147.787 265.288, 2161.828 278.025, 2184.360 288.481 C 2189.387 290.813, 2204.525 296.395, 2218 300.884 C 2245.495 310.043, 2252.491 313.215, 2255.750 317.995 C 2261.288 326.119, 2255.591 338.170, 2244.336 342.142 C 2239.467 343.860, 2220.673 343.803, 2212.500 342.045 C 2197.590 338.839, 2179.640 330.983, 2166.468 321.901 C 2160.115 317.520, 2148.223 306.309, 2141.645 298.500 C 2139.127 295.510, 2139.112 295.506, 2137.221 297.500 C 2136.178 298.600, 2126.211 309.529, 2115.072 321.787 L 2094.819 344.073 2098.652 348.787 C 2119.677 374.641, 2154.063 394.717, 2189.643 401.912 C 2204.943 405.006, 2215.159 406, 2231.651 406 C 2254.611 406, 2271.529 402.967, 2289.544 395.623 C 2312.845 386.123, 2331.133 368.613, 2339.282 348 C 2347.781 326.504, 2346.508 297.668, 2336.292 280.236 C 2329.662 268.923, 2315.566 257.405, 2298.734 249.547 C 2293.655 247.177, 2278.025 241.319, 2264 236.531 C 2226.828 223.839, 2220 219.744, 2220 210.146 C 2220 198.347, 2229.581 193.354, 2250.445 194.280 C 2275.923 195.412, 2297.549 205.265, 2315.094 223.736 L 2322.238 231.257 2345.869 207.564 L 2369.500 183.872 2359.408 174.186 C 2339.287 154.875, 2316.577 141.804, 2292.409 135.627 C 2276.534 131.569, 2247.611 129.476, 2229.500 131.075 M 764.081 137.750 C 763.533 139.813, 760.350 153.200, 757.008 167.500 C 753.666 181.800, 750.692 194.287, 750.398 195.250 C 749.896 196.898, 752.356 197, 792.433 197 C 815.845 197, 835 197.120, 835 197.266 C 835 197.413, 824.461 243.189, 811.581 298.992 C 798.700 354.795, 788.376 400.800, 788.640 401.226 C 788.903 401.652, 807.511 402, 829.992 402 C 868.061 402, 870.900 401.880, 871.366 400.250 C 872.145 397.530, 918 198.254, 918 197.589 C 918 197.265, 937.116 197, 960.481 197 L 1002.962 197 1003.487 194.750 C 1011.267 161.408, 1016.852 135.569, 1016.427 134.881 C 1016.117 134.381, 961.730 134, 890.480 134 L 765.077 134 764.081 137.750 M 1413.315 136.643 C 1407.882 144.933, 1263.262 400.615, 1263.650 401.242 C 1263.907 401.659, 1282.998 402, 1306.074 402 L 1348.029 402 1349.946 398.848 C 1351.001 397.114, 1357.856 384.072, 1365.182 369.865 L 1378.500 344.034 1419.250 344.017 L 1460 344 1459.994 346.750 C 1459.982 352.699, 1462.134 395.691, 1462.598 398.750 L 1463.091 402 1502.045 402 C 1540.581 402, 1541 401.978, 1541 399.961 C 1541 396.625, 1514.965 136.611, 1514.495 135.250 C 1514.157 134.273, 1503.264 134, 1464.554 134 L 1415.046 134 1413.315 136.643 M 1624.474 136.250 C 1617.172 165.399, 1563.375 400.725, 1563.891 401.261 C 1564.293 401.680, 1583.036 401.905, 1605.541 401.761 L 1646.460 401.500 1652.705 374.500 C 1656.140 359.650, 1659.675 344.268, 1660.560 340.319 L 1662.170 333.137 1680.129 316.819 C 1690.006 307.843, 1698.410 300.386, 1698.804 300.246 C 1699.199 300.107, 1708.072 322.832, 1718.523 350.746 L 1737.524 401.500 1778.951 401.761 C 1801.736 401.905, 1820.698 401.680, 1821.089 401.261 C 1821.481 400.843, 1809.004 366.750, 1793.364 325.500 C 1777.724 284.250, 1764.695 249.587, 1764.410 248.470 C 1763.992 246.825, 1774.901 235.961, 1821.947 191.171 C 1853.876 160.773, 1880 135.474, 1880 134.951 C 1880 134.364, 1862.783 134, 1835.009 134 L 1790.019 134 1738.342 182.499 C 1709.919 209.173, 1686.507 230.841, 1686.315 230.648 C 1686.122 230.455, 1690.923 209.089, 1696.982 183.166 C 1703.042 157.243, 1708 135.576, 1708 135.017 C 1708 134.344, 1693.964 134, 1666.519 134 L 1625.038 134 1624.474 136.250 M 1905.036 147.250 C 1903.323 154.537, 1889.410 214.500, 1874.120 280.500 L 1846.318 400.500 1955.821 400.754 C 2016.048 400.894, 2065.519 400.814, 2065.757 400.576 C 2066.305 400.028, 2080 342.083, 2080 340.313 C 2080 339.242, 2067.487 339, 2012.146 339 L 1944.291 339 1948.672 319.750 C 1951.081 309.163, 1953.296 299.712, 1953.593 298.750 C 1954.100 297.112, 1957.503 297, 2006.529 297 L 2058.923 297 2059.910 293.250 C 2061 289.109, 2072 240.154, 2072 239.444 C 2072 239.200, 2048.366 239, 2019.481 239 L 1966.962 239 1967.500 236.750 C 1967.796 235.512, 1969.973 226.175, 1972.338 216 L 1976.638 197.500 2043.524 197 L 2110.410 196.500 2117.179 167 C 2120.902 150.775, 2123.960 136.713, 2123.974 135.750 C 2123.999 134.094, 2118.204 134, 2016.076 134 L 1908.151 134 1905.036 147.250 M 595.383 195.949 C 581.879 199.173, 567.884 213.149, 559.082 232.200 C 550.895 249.922, 546.991 267.260, 546.292 289 C 545.905 301.064, 546.148 306.001, 547.388 311.271 C 550.467 324.358, 556.836 332.804, 567.253 337.615 C 573.086 340.309, 574.329 340.500, 586.021 340.500 C 598.110 340.500, 598.768 340.389, 605.101 337.271 C 626.978 326.501, 643.280 293.900, 647.099 253.280 C 650.066 221.720, 641.374 202.346, 621.614 196.478 C 616.399 194.929, 600.958 194.618, 595.383 195.949 M 1443.608 215.816 C 1438.717 226.642, 1428.592 247.394, 1421.108 261.932 C 1413.623 276.469, 1407.350 288.732, 1407.167 289.182 C 1406.983 289.632, 1418.121 290, 1431.917 290 C 1455.149 290, 1456.998 289.871, 1456.973 288.250 C 1456.958 287.288, 1456.295 274.575, 1455.500 260 C 1454.705 245.425, 1454.016 226.750, 1453.969 218.500 C 1453.923 210.250, 1453.573 201.842, 1453.192 199.816 C 1452.524 196.259, 1452.194 196.808, 1443.608 215.816" stroke="none" fill="#fffcfc" fill-rule="evenodd"/><path d="" stroke="none" fill="#fcfcfc" fill-rule="evenodd"/></svg>